<svg width="375" height="36" viewBox="0 0 375 36" fill="none" xmlns="http://www.w3.org/2000/svg">
<path d="M352.333 12.6949C350.094 10.6528 348.726 7.7486 351.738 5.7358C352.849 4.99459 354.536 4.8778 355.804 4.57949C357.817 4.10676 359.467 3.46869 358.203 1.21624C357.659 0.246501 359.204 -0.522013 359.748 0.446717C361.408 3.40448 359.782 5.23323 356.867 6.0877C355.433 6.50634 353.852 6.60291 352.507 7.28041C350.386 8.35279 352.603 10.6143 353.619 11.5426C354.442 12.2919 353.149 13.4376 352.333 12.6949Z" fill="#FFC52F"/>
<path d="M359.636 31.4841L352.761 24.6099C349.246 21.0955 349.243 15.3989 352.762 11.8814C356.274 8.36852 361.976 8.36549 365.491 11.8814L372.365 18.7551C375.879 22.2695 375.877 27.9727 372.365 31.4841C368.847 35.0025 363.15 34.9985 359.636 31.4841Z" fill="#DCE2E9"/>
<path d="M370.931 30.0492C367.413 33.5687 361.716 33.5657 358.201 30.0492L359.636 31.4841C363.15 34.9985 368.847 35.0026 372.365 31.4841C375.877 27.9727 375.879 22.2696 372.365 18.7551L370.931 17.3202C374.446 20.8357 374.443 26.5388 370.931 30.0492Z" fill="#BFC8D5"/>
<path d="M360.299 18.6248L353.171 11.4979C353.033 11.6203 352.895 11.7477 352.762 11.8811C352.629 12.0146 352.502 12.1506 352.379 12.2902L359.506 19.4166C357.25 21.8283 355.908 24.691 355.563 27.4107L356.588 28.4365C356.698 25.5688 358.109 22.3835 360.687 19.8059C363.263 17.2294 366.451 15.8172 369.317 15.7075L368.292 14.6817C365.573 15.0275 362.709 16.3694 360.299 18.6248Z" fill="#DCE2E9"/>
<path d="M355.851 17.9534L354.24 16.3415C353.417 15.5184 353.417 14.1831 354.24 13.3585C355.064 12.5359 356.4 12.5359 357.223 13.3585L358.834 14.9703C359.657 15.794 359.657 17.1298 358.834 17.9534C358.01 18.777 356.674 18.777 355.851 17.9534Z" fill="#5A6271"/>
<g opacity="0.399994">
<path d="M354.24 13.3585C353.417 14.1832 353.417 15.5179 354.24 16.3416L354.527 16.6282C353.703 15.8056 353.703 14.4693 354.527 13.6457C355.35 12.8231 356.686 12.8231 357.51 13.6457L357.222 13.3585C356.4 12.5359 355.064 12.5359 354.24 13.3585Z" fill="#5A6271"/>
</g>
<g opacity="0.399994">
<path d="M358.547 17.666C357.723 18.4896 356.388 18.4896 355.565 17.666L355.851 17.9531C356.674 18.7768 358.01 18.7768 358.834 17.9531C359.657 17.1295 359.657 15.7937 358.834 14.9701L358.547 14.6839C359.37 15.5071 359.37 16.8434 358.547 17.666Z" fill="#5A6271"/>
</g>
<g opacity="0.199997">
<path d="M355.308 16.4C355.173 16.5335 355.173 16.7514 355.308 16.8849C355.442 17.0194 355.659 17.0204 355.794 16.8859L357.767 14.912C357.902 14.7786 357.9 14.5601 357.766 14.4262C357.632 14.2927 357.415 14.2927 357.282 14.4262L355.308 16.4Z" fill="#5A6271"/>
</g>
<g opacity="0.199997">
<path d="M354.447 15.5399C354.313 15.6734 354.313 15.8913 354.447 16.0248C354.581 16.1582 354.798 16.1592 354.932 16.0248L356.906 14.0509C357.041 13.9174 357.04 13.699 356.906 13.566C356.773 13.4315 356.555 13.4315 356.421 13.566L354.447 15.5399Z" fill="#5A6271"/>
</g>
<g opacity="0.199997">
<path d="M356.168 17.2611C356.033 17.3946 356.034 17.6125 356.169 17.7459C356.301 17.8794 356.52 17.8804 356.654 17.7459L358.628 15.7731C358.762 15.6386 358.761 15.4202 358.628 15.2872C358.494 15.1537 358.276 15.1527 358.142 15.2862L356.168 17.2611Z" fill="#5A6271"/>
</g>
<path d="M2.25 29V11.15H16.375V29H12.6V14.3H6.025V29H2.25ZM28.1779 15.1C29.7113 15.1 30.9529 15.7 31.9029 16.9C32.8529 18.0833 33.3279 19.8333 33.3279 22.15C33.3279 23.7 33.1029 25.0083 32.6529 26.075C32.2029 27.125 31.5863 27.9167 30.8029 28.45C30.0196 28.9833 29.1113 29.25 28.0779 29.25C27.4279 29.25 26.8613 29.1667 26.3779 29C25.9113 28.8333 25.5113 28.6167 25.1779 28.35C24.8446 28.0833 24.5529 27.8 24.3029 27.5H24.1029C24.1696 27.8167 24.2196 28.15 24.2529 28.5C24.2863 28.8333 24.3029 29.1667 24.3029 29.5V35H20.5779V15.35H23.6029L24.1279 17.125H24.3029C24.5529 16.7583 24.8529 16.425 25.2029 16.125C25.5529 15.8083 25.9696 15.5583 26.4529 15.375C26.9529 15.1917 27.5279 15.1 28.1779 15.1ZM26.9779 18.075C26.3279 18.075 25.8113 18.2083 25.4279 18.475C25.0446 18.7417 24.7613 19.15 24.5779 19.7C24.4113 20.2333 24.3196 20.9083 24.3029 21.725V22.125C24.3029 23.0083 24.3863 23.7583 24.5529 24.375C24.7196 24.975 25.0029 25.4333 25.4029 25.75C25.8029 26.0667 26.3446 26.225 27.0279 26.225C27.5946 26.225 28.0613 26.0667 28.4279 25.75C28.7946 25.4333 29.0696 24.9667 29.2529 24.35C29.4363 23.7333 29.5279 22.9833 29.5279 22.1C29.5279 20.7667 29.3196 19.7667 28.9029 19.1C28.5029 18.4167 27.8613 18.075 26.9779 18.075ZM39.9982 20.75C39.9982 21.0333 39.9816 21.3833 39.9482 21.8C39.9316 22.2167 39.9066 22.6417 39.8732 23.075C39.8566 23.5083 39.8316 23.8917 39.7982 24.225C39.7649 24.5583 39.7399 24.7917 39.7232 24.925L46.0232 15.35H50.4982V29H46.8982V23.55C46.8982 23.1 46.9149 22.6083 46.9482 22.075C46.9816 21.525 47.0149 21.0167 47.0482 20.55C47.0982 20.0667 47.1316 19.7 47.1482 19.45L40.8732 29H36.3982V15.35H39.9982V20.75ZM66.4914 18.925C66.4914 19.6583 66.2581 20.2833 65.7914 20.8C65.3414 21.3167 64.6664 21.65 63.7664 21.8V21.9C64.7164 22.0167 65.4747 22.3417 66.0414 22.875C66.6247 23.4083 66.9164 24.0917 66.9164 24.925C66.9164 25.5083 66.7997 26.05 66.5664 26.55C66.3497 27.05 65.9997 27.4833 65.5164 27.85C65.0331 28.2167 64.4081 28.5 63.6414 28.7C62.8914 28.9 61.9747 29 60.8914 29H54.3914V15.35H60.8914C61.9581 15.35 62.9081 15.4667 63.7414 15.7C64.5914 15.9167 65.2581 16.2833 65.7414 16.8C66.2414 17.3167 66.4914 18.025 66.4914 18.925ZM63.0664 24.725C63.0664 24.1917 62.8581 23.8083 62.4414 23.575C62.0247 23.325 61.3997 23.2 60.5664 23.2H58.1164V26.425H60.6414C61.3414 26.425 61.9164 26.3 62.3664 26.05C62.8331 25.7833 63.0664 25.3417 63.0664 24.725ZM62.7164 19.225C62.7164 18.7917 62.5497 18.475 62.2164 18.275C61.8831 18.075 61.3914 17.975 60.7414 17.975H58.1164V20.675H60.3164C61.0997 20.675 61.6914 20.5667 62.0914 20.35C62.5081 20.1167 62.7164 19.7417 62.7164 19.225ZM75.7391 15.1C77.0057 15.1 78.0891 15.3417 78.9891 15.825C79.9057 16.3083 80.6141 17.0083 81.1141 17.925C81.6141 18.8417 81.8641 19.9667 81.8641 21.3V23.1H73.0641C73.0974 24.15 73.4057 24.975 73.9891 25.575C74.5891 26.175 75.4141 26.475 76.4641 26.475C77.3474 26.475 78.1474 26.3917 78.8641 26.225C79.5807 26.0417 80.3224 25.7667 81.0891 25.4V28.275C80.4224 28.6083 79.7141 28.85 78.9641 29C78.2307 29.1667 77.3391 29.25 76.2891 29.25C74.9224 29.25 73.7141 29 72.6641 28.5C71.6141 27.9833 70.7891 27.2083 70.1891 26.175C69.5891 25.1417 69.2891 23.8417 69.2891 22.275C69.2891 20.675 69.5557 19.35 70.0891 18.3C70.6391 17.2333 71.3974 16.4333 72.3641 15.9C73.3307 15.3667 74.4557 15.1 75.7391 15.1ZM75.7641 17.75C75.0474 17.75 74.4474 17.9833 73.9641 18.45C73.4974 18.9167 73.2224 19.6417 73.1391 20.625H78.3641C78.3641 20.075 78.2641 19.5833 78.0641 19.15C77.8807 18.7167 77.5974 18.375 77.2141 18.125C76.8307 17.875 76.3474 17.75 75.7641 17.75ZM96.1846 18.15H91.7096V29H87.9846V18.15H83.5096V15.35H96.1846V18.15ZM97.998 26.4243C97.998 26.0337 98.0713 25.6675 98.2178 25.3257C98.3724 24.9839 98.5758 24.6868 98.8281 24.4346C99.0885 24.1742 99.3896 23.9707 99.7314 23.8242C100.073 23.6777 100.439 23.6045 100.83 23.6045C101.221 23.6045 101.587 23.6777 101.929 23.8242C102.271 23.9707 102.568 24.1742 102.82 24.4346C103.08 24.6868 103.284 24.9839 103.43 25.3257C103.577 25.6675 103.65 26.0337 103.65 26.4243C103.65 26.6766 103.613 26.937 103.54 27.2056C103.467 27.466 103.385 27.702 103.296 27.9136L101.709 31.6733C101.66 31.7791 101.619 31.8687 101.587 31.9419C101.554 32.0233 101.514 32.0884 101.465 32.1372C101.424 32.186 101.367 32.2186 101.294 32.2349C101.229 32.2593 101.139 32.2715 101.025 32.2715H99.5483C99.3123 32.2715 99.1943 32.1942 99.1943 32.0396C99.1943 31.95 99.2228 31.8483 99.2798 31.7344L100.415 29.2075C100.073 29.1587 99.7559 29.0529 99.4629 28.8901C99.1699 28.7274 98.9136 28.5239 98.6938 28.2798C98.4823 28.0275 98.3114 27.7467 98.1812 27.4375C98.0591 27.1201 97.998 26.7824 97.998 26.4243ZM131.552 15.35V29H128.077V22.3C128.077 21.6333 128.086 20.9833 128.102 20.35C128.136 19.7167 128.177 19.1333 128.227 18.6H128.152L124.377 29H121.577L117.752 18.575H117.652C117.719 19.125 117.761 19.7167 117.777 20.35C117.811 20.9667 117.827 21.65 117.827 22.4V29H114.352V15.35H119.627L123.027 24.6L126.477 15.35H131.552ZM141.071 15.1C142.338 15.1 143.421 15.3417 144.321 15.825C145.238 16.3083 145.946 17.0083 146.446 17.925C146.946 18.8417 147.196 19.9667 147.196 21.3V23.1H138.396C138.429 24.15 138.738 24.975 139.321 25.575C139.921 26.175 140.746 26.475 141.796 26.475C142.679 26.475 143.479 26.3917 144.196 26.225C144.913 26.0417 145.654 25.7667 146.421 25.4V28.275C145.754 28.6083 145.046 28.85 144.296 29C143.563 29.1667 142.671 29.25 141.621 29.25C140.254 29.25 139.046 29 137.996 28.5C136.946 27.9833 136.121 27.2083 135.521 26.175C134.921 25.1417 134.621 23.8417 134.621 22.275C134.621 20.675 134.888 19.35 135.421 18.3C135.971 17.2333 136.729 16.4333 137.696 15.9C138.663 15.3667 139.788 15.1 141.071 15.1ZM141.096 17.75C140.379 17.75 139.779 17.9833 139.296 18.45C138.829 18.9167 138.554 19.6417 138.471 20.625H143.696C143.696 20.075 143.596 19.5833 143.396 19.15C143.213 18.7167 142.929 18.375 142.546 18.125C142.163 17.875 141.679 17.75 141.096 17.75ZM153.942 15.35V20.6H159.142V15.35H162.867V29H159.142V23.375H153.942V29H150.217V15.35H153.942ZM168.844 29H164.819L168.494 23.6C168.028 23.4 167.586 23.1333 167.169 22.8C166.769 22.45 166.444 22.0083 166.194 21.475C165.944 20.9417 165.819 20.3083 165.819 19.575C165.819 18.2083 166.336 17.1667 167.369 16.45C168.403 15.7167 169.728 15.35 171.344 15.35H177.694V29H173.969V23.925H171.919L168.844 29ZM169.469 19.6C169.469 20.1667 169.694 20.6167 170.144 20.95C170.594 21.2667 171.178 21.425 171.894 21.425H173.969V17.975H171.419C170.753 17.975 170.261 18.1417 169.944 18.475C169.628 18.7917 169.469 19.1667 169.469 19.6ZM194.059 15.1C195.042 15.1 195.959 15.2333 196.809 15.5C197.675 15.75 198.367 16.1417 198.884 16.675C199.417 17.2083 199.684 17.8917 199.684 18.725C199.684 19.5417 199.434 20.1917 198.934 20.675C198.45 21.1583 197.792 21.5083 196.959 21.725V21.85C197.542 21.9833 198.067 22.175 198.534 22.425C199 22.6583 199.367 22.9833 199.634 23.4C199.917 23.8 200.059 24.3417 200.059 25.025C200.059 25.775 199.817 26.475 199.334 27.125C198.867 27.7583 198.134 28.275 197.134 28.675C196.15 29.0583 194.884 29.25 193.334 29.25C192.6 29.25 191.909 29.2167 191.259 29.15C190.609 29.0833 190.017 28.9917 189.484 28.875C188.95 28.7417 188.484 28.5833 188.084 28.4V25.325C188.65 25.5917 189.342 25.8333 190.159 26.05C190.992 26.2667 191.875 26.375 192.809 26.375C193.492 26.375 194.1 26.325 194.634 26.225C195.184 26.125 195.617 25.9583 195.934 25.725C196.267 25.4917 196.434 25.1833 196.434 24.8C196.434 24.4333 196.292 24.1333 196.009 23.9C195.725 23.65 195.3 23.4667 194.734 23.35C194.167 23.2333 193.442 23.175 192.559 23.175H191.109V20.6H192.484C193.717 20.6 194.667 20.5 195.334 20.3C196.017 20.1 196.359 19.725 196.359 19.175C196.359 18.7417 196.142 18.4167 195.709 18.2C195.275 17.9667 194.567 17.85 193.584 17.85C192.934 17.85 192.225 17.925 191.459 18.075C190.692 18.225 189.967 18.4417 189.284 18.725L188.184 16.125C188.967 15.825 189.825 15.5833 190.759 15.4C191.692 15.2 192.792 15.1 194.059 15.1ZM215.351 22.15C215.351 23.2833 215.193 24.2917 214.876 25.175C214.576 26.0583 214.134 26.8083 213.551 27.425C212.984 28.025 212.293 28.4833 211.476 28.8C210.659 29.1 209.734 29.25 208.701 29.25C207.751 29.25 206.868 29.1 206.051 28.8C205.251 28.4833 204.559 28.025 203.976 27.425C203.393 26.8083 202.934 26.0583 202.601 25.175C202.284 24.2917 202.126 23.2833 202.126 22.15C202.126 20.6333 202.393 19.3583 202.926 18.325C203.459 17.275 204.226 16.475 205.226 15.925C206.226 15.375 207.409 15.1 208.776 15.1C210.059 15.1 211.193 15.375 212.176 15.925C213.159 16.475 213.934 17.275 214.501 18.325C215.068 19.3583 215.351 20.6333 215.351 22.15ZM205.926 22.15C205.926 23.05 206.018 23.8083 206.201 24.425C206.401 25.025 206.709 25.4833 207.126 25.8C207.543 26.1 208.084 26.25 208.751 26.25C209.418 26.25 209.951 26.1 210.351 25.8C210.768 25.4833 211.068 25.025 211.251 24.425C211.451 23.8083 211.551 23.05 211.551 22.15C211.551 21.25 211.451 20.5 211.251 19.9C211.068 19.3 210.768 18.85 210.351 18.55C209.934 18.25 209.393 18.1 208.726 18.1C207.743 18.1 207.026 18.4417 206.576 19.125C206.143 19.7917 205.926 20.8 205.926 22.15ZM230.529 18.925C230.529 19.6583 230.296 20.2833 229.829 20.8C229.379 21.3167 228.704 21.65 227.804 21.8V21.9C228.754 22.0167 229.513 22.3417 230.079 22.875C230.663 23.4083 230.954 24.0917 230.954 24.925C230.954 25.5083 230.838 26.05 230.604 26.55C230.388 27.05 230.038 27.4833 229.554 27.85C229.071 28.2167 228.446 28.5 227.679 28.7C226.929 28.9 226.013 29 224.929 29H218.429V15.35H224.929C225.996 15.35 226.946 15.4667 227.779 15.7C228.629 15.9167 229.296 16.2833 229.779 16.8C230.279 17.3167 230.529 18.025 230.529 18.925ZM227.104 24.725C227.104 24.1917 226.896 23.8083 226.479 23.575C226.063 23.325 225.438 23.2 224.604 23.2H222.154V26.425H224.679C225.379 26.425 225.954 26.3 226.404 26.05C226.871 25.7833 227.104 25.3417 227.104 24.725ZM226.754 19.225C226.754 18.7917 226.588 18.475 226.254 18.275C225.921 18.075 225.429 17.975 224.779 17.975H222.154V20.675H224.354C225.138 20.675 225.729 20.5667 226.129 20.35C226.546 20.1167 226.754 19.7417 226.754 19.225ZM232.202 15.35H236.277L238.852 23.025C238.935 23.275 239.002 23.525 239.052 23.775C239.119 24.025 239.169 24.2833 239.202 24.55C239.252 24.8167 239.285 25.1 239.302 25.4H239.377C239.427 24.9667 239.494 24.5583 239.577 24.175C239.677 23.775 239.785 23.3917 239.902 23.025L242.427 15.35H246.427L240.652 30.75C240.302 31.6833 239.844 32.4667 239.277 33.1C238.727 33.7333 238.085 34.2083 237.352 34.525C236.619 34.8417 235.819 35 234.952 35C234.535 35 234.169 34.975 233.852 34.925C233.552 34.8917 233.285 34.85 233.052 34.8V31.85C233.235 31.8833 233.452 31.9167 233.702 31.95C233.969 31.9833 234.244 32 234.527 32C235.044 32 235.485 31.8917 235.852 31.675C236.235 31.4583 236.552 31.1583 236.802 30.775C237.052 30.4083 237.252 30.0083 237.402 29.575L237.627 28.9L232.202 15.35ZM259.686 18.15H255.211V29H251.486V18.15H247.011V15.35H259.686V18.15ZM280.924 29L279.624 24.75H273.124L271.824 29H267.749L274.049 11.075H278.674L284.999 29H280.924ZM277.424 17.425C277.341 17.1417 277.232 16.7833 277.099 16.35C276.966 15.9167 276.832 15.475 276.699 15.025C276.566 14.575 276.457 14.1833 276.374 13.85C276.291 14.1833 276.174 14.6 276.024 15.1C275.891 15.5833 275.757 16.05 275.624 16.5C275.507 16.9333 275.416 17.2417 275.349 17.425L274.074 21.575H278.724L277.424 17.425ZM290.685 15.35V20.6H295.885V15.35H299.61V29H295.885V23.375H290.685V29H286.96V15.35H290.685ZM307.238 15.35V20.6H312.438V15.35H316.163V29H312.438V23.375H307.238V29H303.513V15.35H307.238ZM325.665 15.075C327.499 15.075 328.899 15.475 329.865 16.275C330.849 17.0583 331.34 18.2667 331.34 19.9V29H328.74L328.015 27.15H327.915C327.532 27.6333 327.132 28.0333 326.715 28.35C326.315 28.6667 325.849 28.8917 325.315 29.025C324.799 29.175 324.157 29.25 323.39 29.25C322.59 29.25 321.865 29.1 321.215 28.8C320.582 28.4833 320.082 28.0083 319.715 27.375C319.349 26.725 319.165 25.9083 319.165 24.925C319.165 23.475 319.674 22.4083 320.69 21.725C321.707 21.025 323.232 20.6417 325.265 20.575L327.64 20.5V19.9C327.64 19.1833 327.449 18.6583 327.065 18.325C326.699 17.9917 326.182 17.825 325.515 17.825C324.849 17.825 324.199 17.925 323.565 18.125C322.932 18.3083 322.299 18.5417 321.665 18.825L320.44 16.3C321.174 15.9167 321.982 15.6167 322.865 15.4C323.765 15.1833 324.699 15.075 325.665 15.075ZM326.19 22.725C324.99 22.7583 324.157 22.975 323.69 23.375C323.224 23.775 322.99 24.3 322.99 24.95C322.99 25.5167 323.157 25.925 323.49 26.175C323.824 26.4083 324.257 26.525 324.79 26.525C325.59 26.525 326.265 26.2917 326.815 25.825C327.365 25.3417 327.64 24.6667 327.64 23.8V22.675L326.19 22.725Z" fill="#64FFDA"/>
</svg>
